<?xml version="1.0" encoding="UTF-8" standalone="no"?>
<!DOCTYPE svg PUBLIC "-//W3C//DTD SVG 1.1//EN" "http://www.w3.org/Graphics/SVG/1.1/DTD/svg11.dtd">
<svg width="100%" height="100%" viewBox="0 0 1024 512" version="1.1" xmlns="http://www.w3.org/2000/svg" xmlns:xlink="http://www.w3.org/1999/xlink" xml:space="preserve" xmlns:serif="http://www.serif.com/" style="fill-rule:evenodd;clip-rule:evenodd;stroke-linejoin:round;stroke-miterlimit:2;">
    <g transform="matrix(1,0,0,1,-3034,-568)">
        <g id="virusLogo-v2" serif:id="virusLogo v2" transform="matrix(3.2094,0,0,2.20646,-3272.66,631.938)">
            <rect x="1965.06" y="-28.978" width="319.063" height="232.046" style="fill:none;"/>
            <g transform="matrix(0.311585,0,0,1.05285,1871.51,-488.861)">
                <g>
                    <g transform="matrix(1,0,0,1,172.232,76.6336)">
                        <path d="M355.989,467.424C355.046,465.844 354.333,464.195 353.873,462.477C337.46,456.889 328.126,448.465 328.126,438.091C328.126,428.358 336.811,420.45 351.095,414.848C364.166,409.722 382.65,406.379 405.745,406.379L451.882,406.379C471.562,406.379 488.029,408.831 500.621,412.772C512.909,408.757 528.56,406.379 547.03,406.379C570.06,406.379 588.718,410.098 601.927,416.057C603.194,416.629 604.415,417.224 605.586,417.842C619.7,410.47 638.855,406.379 664.618,406.379C672.095,406.379 679.477,406.832 686.473,407.683C693.228,406.816 700.373,406.379 707.883,406.379C733.075,406.379 751.947,410.29 765.967,417.355C767.772,416.464 769.696,415.621 771.73,414.826C784.86,409.699 803.59,406.379 827.805,406.379L858.145,406.379C881.532,406.379 896.488,409.058 909.852,414.235L910.058,414.315L919.529,419.001L926.253,424.374C929.567,427.874 931.455,431.821 931.455,436.081L930.294,441.45L926.972,446.5L924.854,448.358L924.992,448.755L924.85,449.134L927.085,451.005L930.453,456.315C931.101,457.958 931.455,459.709 931.455,461.583C931.455,463.844 930.939,466.004 929.966,468.054C942.808,469.477 953.248,472.076 962.075,475.616C976.451,481.371 985.387,489.853 985.387,499.142C985.387,502.566 984.201,505.911 982.052,509.039C984.78,512.942 985.387,516.387 985.387,519.312C985.387,528.627 976.879,536.622 962.678,542.59C962.482,542.672 962.283,542.754 962.083,542.834C948.208,548.4 930.346,551.642 905.435,551.642L884.61,551.642C859.903,551.642 842.149,548.47 828.075,542.95C827.885,542.876 827.697,542.8 827.511,542.724C811.304,548.409 789.839,551.642 764.509,551.642C735.83,551.642 714.592,548.35 698.67,542.547C684.213,548.414 665.578,551.642 645.305,551.642C637.707,551.642 631.035,551.317 624.762,550.588C618.28,551.286 611.461,551.642 604.373,551.642C584.545,551.642 567.958,548.885 555.299,544.315C542.634,548.892 526.034,551.642 506.174,551.642C483.144,551.642 464.486,547.922 451.277,541.963C450.162,541.46 449.082,540.939 448.041,540.4C445.259,541.814 442.343,543.062 439.302,544.168C425.72,549.129 410.247,551.642 390.561,551.642C370.933,551.642 355.186,549.114 341.643,544.169C332.24,540.749 324.062,536.096 317.301,529.137L317.252,529.086L301.274,512.471L301.114,512.302C296.836,507.698 294.631,502.942 294.631,498.601C294.631,482.58 319.833,470.25 355.989,467.424Z" style="fill:rgb(49,119,71);"/>
                        <clipPath id="_clip1">
                            <path d="M355.989,467.424C355.046,465.844 354.333,464.195 353.873,462.477C337.46,456.889 328.126,448.465 328.126,438.091C328.126,428.358 336.811,420.45 351.095,414.848C364.166,409.722 382.65,406.379 405.745,406.379L451.882,406.379C471.562,406.379 488.029,408.831 500.621,412.772C512.909,408.757 528.56,406.379 547.03,406.379C570.06,406.379 588.718,410.098 601.927,416.057C603.194,416.629 604.415,417.224 605.586,417.842C619.7,410.47 638.855,406.379 664.618,406.379C672.095,406.379 679.477,406.832 686.473,407.683C693.228,406.816 700.373,406.379 707.883,406.379C733.075,406.379 751.947,410.29 765.967,417.355C767.772,416.464 769.696,415.621 771.73,414.826C784.86,409.699 803.59,406.379 827.805,406.379L858.145,406.379C881.532,406.379 896.488,409.058 909.852,414.235L910.058,414.315L919.529,419.001L926.253,424.374C929.567,427.874 931.455,431.821 931.455,436.081L930.294,441.45L926.972,446.5L924.854,448.358L924.992,448.755L924.85,449.134L927.085,451.005L930.453,456.315C931.101,457.958 931.455,459.709 931.455,461.583C931.455,463.844 930.939,466.004 929.966,468.054C942.808,469.477 953.248,472.076 962.075,475.616C976.451,481.371 985.387,489.853 985.387,499.142C985.387,502.566 984.201,505.911 982.052,509.039C984.78,512.942 985.387,516.387 985.387,519.312C985.387,528.627 976.879,536.622 962.678,542.59C962.482,542.672 962.283,542.754 962.083,542.834C948.208,548.4 930.346,551.642 905.435,551.642L884.61,551.642C859.903,551.642 842.149,548.47 828.075,542.95C827.885,542.876 827.697,542.8 827.511,542.724C811.304,548.409 789.839,551.642 764.509,551.642C735.83,551.642 714.592,548.35 698.67,542.547C684.213,548.414 665.578,551.642 645.305,551.642C637.707,551.642 631.035,551.317 624.762,550.588C618.28,551.286 611.461,551.642 604.373,551.642C584.545,551.642 567.958,548.885 555.299,544.315C542.634,548.892 526.034,551.642 506.174,551.642C483.144,551.642 464.486,547.922 451.277,541.963C450.162,541.46 449.082,540.939 448.041,540.4C445.259,541.814 442.343,543.062 439.302,544.168C425.72,549.129 410.247,551.642 390.561,551.642C370.933,551.642 355.186,549.114 341.643,544.169C332.24,540.749 324.062,536.096 317.301,529.137L317.252,529.086L301.274,512.471L301.114,512.302C296.836,507.698 294.631,502.942 294.631,498.601C294.631,482.58 319.833,470.25 355.989,467.424Z"/>
                        </clipPath>
                        <g clip-path="url(#_clip1)">
                            <g transform="matrix(1.16129,0,0,0.471131,-3469.23,90.2266)">
                                <path d="M3886.22,606.178C3786.65,837.536 3599.24,965.148 3359,1030.37L3837.19,1055.95L4050.35,1026.81L4134.9,798.022L3886.22,606.178Z" style="fill:rgb(0,125,151);fill-opacity:0.28;"/>
                            </g>
                            <g transform="matrix(1.16129,0,0,0.471131,-3621.11,70.2601)">
                                <path d="M3886.22,606.178C3786.65,837.536 3599.24,965.148 3359,1030.37L3837.19,1055.95L4050.35,1026.81L4134.9,798.022L3886.22,606.178Z" style="fill:rgb(0,125,151);fill-opacity:0.28;"/>
                            </g>
                        </g>
                    </g>
                    <g transform="matrix(1,0,0,1,172.232,59.3406)">
                        <path d="M355.989,467.424C355.046,465.844 354.333,464.195 353.873,462.477C337.46,456.889 328.126,448.465 328.126,438.091C328.126,428.358 336.811,420.45 351.095,414.848C364.166,409.722 382.65,406.379 405.745,406.379L451.882,406.379C471.562,406.379 488.029,408.831 500.621,412.772C512.909,408.757 528.56,406.379 547.03,406.379C570.06,406.379 588.718,410.098 601.927,416.057C603.194,416.629 604.415,417.224 605.586,417.842C619.7,410.47 638.855,406.379 664.618,406.379C672.095,406.379 679.477,406.832 686.473,407.683C693.228,406.816 700.373,406.379 707.883,406.379C733.075,406.379 751.947,410.29 765.967,417.355C767.772,416.464 769.696,415.621 771.73,414.826C784.86,409.699 803.59,406.379 827.805,406.379L858.145,406.379C881.532,406.379 896.488,409.058 909.852,414.235L910.058,414.315L919.529,419.001L926.253,424.374C929.567,427.874 931.455,431.821 931.455,436.081L930.294,441.45L926.972,446.5L924.854,448.358L924.992,448.755L924.85,449.134L927.085,451.005L930.453,456.315C931.101,457.958 931.455,459.709 931.455,461.583C931.455,463.844 930.939,466.004 929.966,468.054C942.808,469.477 953.248,472.076 962.075,475.616C976.451,481.371 985.387,489.853 985.387,499.142C985.387,502.566 984.201,505.911 982.052,509.039C984.78,512.942 985.387,516.387 985.387,519.312C985.387,528.627 976.879,536.622 962.678,542.59C962.482,542.672 962.283,542.754 962.083,542.834C948.208,548.4 930.346,551.642 905.435,551.642L884.61,551.642C859.903,551.642 842.149,548.47 828.075,542.95C827.885,542.876 827.697,542.8 827.511,542.724C811.304,548.409 789.839,551.642 764.509,551.642C735.83,551.642 714.592,548.35 698.67,542.547C684.213,548.414 665.578,551.642 645.305,551.642C637.707,551.642 631.035,551.317 624.762,550.588C618.28,551.286 611.461,551.642 604.373,551.642C584.545,551.642 567.958,548.885 555.299,544.315C542.634,548.892 526.034,551.642 506.174,551.642C483.144,551.642 464.486,547.922 451.277,541.963C450.162,541.46 449.082,540.939 448.041,540.4C445.259,541.814 442.343,543.062 439.302,544.168C425.72,549.129 410.247,551.642 390.561,551.642C370.933,551.642 355.186,549.114 341.643,544.169C332.24,540.749 324.062,536.096 317.301,529.137L317.252,529.086L301.274,512.471L301.114,512.302C296.836,507.698 294.631,502.942 294.631,498.601C294.631,482.58 319.833,470.25 355.989,467.424Z" style="fill:rgb(68,167,99);"/>
                        <clipPath id="_clip2">
                            <path d="M355.989,467.424C355.046,465.844 354.333,464.195 353.873,462.477C337.46,456.889 328.126,448.465 328.126,438.091C328.126,428.358 336.811,420.45 351.095,414.848C364.166,409.722 382.65,406.379 405.745,406.379L451.882,406.379C471.562,406.379 488.029,408.831 500.621,412.772C512.909,408.757 528.56,406.379 547.03,406.379C570.06,406.379 588.718,410.098 601.927,416.057C603.194,416.629 604.415,417.224 605.586,417.842C619.7,410.47 638.855,406.379 664.618,406.379C672.095,406.379 679.477,406.832 686.473,407.683C693.228,406.816 700.373,406.379 707.883,406.379C733.075,406.379 751.947,410.29 765.967,417.355C767.772,416.464 769.696,415.621 771.73,414.826C784.86,409.699 803.59,406.379 827.805,406.379L858.145,406.379C881.532,406.379 896.488,409.058 909.852,414.235L910.058,414.315L919.529,419.001L926.253,424.374C929.567,427.874 931.455,431.821 931.455,436.081L930.294,441.45L926.972,446.5L924.854,448.358L924.992,448.755L924.85,449.134L927.085,451.005L930.453,456.315C931.101,457.958 931.455,459.709 931.455,461.583C931.455,463.844 930.939,466.004 929.966,468.054C942.808,469.477 953.248,472.076 962.075,475.616C976.451,481.371 985.387,489.853 985.387,499.142C985.387,502.566 984.201,505.911 982.052,509.039C984.78,512.942 985.387,516.387 985.387,519.312C985.387,528.627 976.879,536.622 962.678,542.59C962.482,542.672 962.283,542.754 962.083,542.834C948.208,548.4 930.346,551.642 905.435,551.642L884.61,551.642C859.903,551.642 842.149,548.47 828.075,542.95C827.885,542.876 827.697,542.8 827.511,542.724C811.304,548.409 789.839,551.642 764.509,551.642C735.83,551.642 714.592,548.35 698.67,542.547C684.213,548.414 665.578,551.642 645.305,551.642C637.707,551.642 631.035,551.317 624.762,550.588C618.28,551.286 611.461,551.642 604.373,551.642C584.545,551.642 567.958,548.885 555.299,544.315C542.634,548.892 526.034,551.642 506.174,551.642C483.144,551.642 464.486,547.922 451.277,541.963C450.162,541.46 449.082,540.939 448.041,540.4C445.259,541.814 442.343,543.062 439.302,544.168C425.72,549.129 410.247,551.642 390.561,551.642C370.933,551.642 355.186,549.114 341.643,544.169C332.24,540.749 324.062,536.096 317.301,529.137L317.252,529.086L301.274,512.471L301.114,512.302C296.836,507.698 294.631,502.942 294.631,498.601C294.631,482.58 319.833,470.25 355.989,467.424Z"/>
                        </clipPath>
                        <g clip-path="url(#_clip2)">
                            <g transform="matrix(1.16129,0,0,0.471131,-3469.23,107.52)">
                                <path d="M3886.22,606.178C3786.65,837.536 3599.24,965.148 3359,1030.37L3837.19,1055.95L4050.35,1026.81L4134.9,798.022L3886.22,606.178Z" style="fill:rgb(0,125,151);fill-opacity:0.28;"/>
                            </g>
                            <g transform="matrix(1.16129,0,0,0.471131,-3621.11,87.5532)">
                                <path d="M3886.22,606.178C3786.65,837.536 3599.24,965.148 3359,1030.37L3837.19,1055.95L4050.35,1026.81L4134.9,798.022L3886.22,606.178Z" style="fill:rgb(0,125,151);fill-opacity:0.28;"/>
                            </g>
                        </g>
                    </g>
                </g>
                <g>
                    <g>
                        <g transform="matrix(1,0,0,1,172.232,59.3406)">
                            <g>
                                <g transform="matrix(1,0,0,0.430464,-196.439,172.956)">
                                    <path d="M625.522,703.894C650.117,703.894 665.915,687.378 665.915,661.706L665.915,651.294C681.713,645.729 690.689,631.905 690.689,615.928C690.689,592.769 673.994,577.689 648.322,577.689L602.184,577.689C576.333,577.689 559.996,592.769 559.996,615.928C559.996,633.342 569.331,646.267 585.129,651.474L585.129,661.706C585.129,687.378 600.748,703.894 625.522,703.894Z"/>
                                </g>
                                <g transform="matrix(1,0,0,0.430464,-196.439,172.956)">
                                    <path d="M625.522,695.098C606.134,695.098 593.926,681.993 593.926,661.706L593.926,644.652C578.487,641.959 568.793,631.187 568.793,615.928C568.793,598.155 581.898,586.486 602.184,586.486L648.322,586.486C668.608,586.486 681.713,598.155 681.713,615.928C681.713,631.367 671.121,641.779 657.118,644.652L657.118,661.706C657.118,681.993 644.731,695.098 625.522,695.098Z"/>
                                    <path d="M625.522,695.098C606.134,695.098 593.926,681.993 593.926,661.706L593.926,644.652C578.487,641.959 568.793,631.187 568.793,615.928C568.793,598.155 581.898,586.486 602.184,586.486L648.322,586.486C668.608,586.486 681.713,598.155 681.713,615.928C681.713,631.367 671.121,641.779 657.118,644.652L657.118,661.706C657.118,681.993 644.731,695.098 625.522,695.098Z"/>
                                </g>
                                <g transform="matrix(1,0,0,0.430464,-196.439,172.956)">
                                    <path d="M602.184,636.573C586.566,636.573 577.41,628.854 577.41,615.928C577.41,602.823 586.566,595.103 602.184,595.103L648.501,595.103C663.94,595.103 673.096,602.823 673.096,615.928C673.096,627.776 665.736,634.778 652.271,636.394C650.117,636.753 648.501,638.009 648.501,640.702L648.501,661.706C648.501,677.145 639.884,686.481 625.522,686.481C611.16,686.481 602.543,677.145 602.543,661.706L602.543,645.19L622.65,645.19C625.163,645.19 626.958,643.395 626.958,640.882C626.958,638.548 625.163,636.573 622.65,636.573L602.184,636.573Z"/>
                                </g>
                            </g>
                            <g>
                                <g transform="matrix(1,0,0,0.430464,-196.439,172.956)">
                                    <path d="M743.469,703.894C767.885,703.894 783.683,687.378 783.683,661.706L783.683,619.698C783.683,594.385 767.885,577.689 743.469,577.689C719.054,577.689 703.256,594.205 703.256,619.877L703.256,661.886C703.256,687.199 719.054,703.894 743.469,703.894Z"/>
                                </g>
                                <g transform="matrix(1,0,0,0.430464,-196.439,172.956)">
                                    <path d="M743.469,695.098C724.44,695.098 712.053,681.993 712.053,661.886L712.053,619.877C712.053,599.591 724.44,586.486 743.469,586.486C762.499,586.486 774.886,599.591 774.886,619.698L774.886,661.706C774.886,681.993 762.499,695.098 743.469,695.098Z"/>
                                    <path d="M743.469,695.098C724.44,695.098 712.053,681.993 712.053,661.886L712.053,619.877C712.053,599.591 724.44,586.486 743.469,586.486C762.499,586.486 774.886,599.591 774.886,619.698L774.886,661.706C774.886,681.993 762.499,695.098 743.469,695.098Z"/>
                                </g>
                                <g transform="matrix(1,0,0,0.430464,-196.439,172.956)">
                                    <path d="M743.469,686.481C729.287,686.481 720.67,677.145 720.67,661.886L720.67,619.877C720.67,604.438 729.287,595.103 743.469,595.103C757.652,595.103 766.269,604.438 766.269,619.698L766.269,661.706C766.269,677.145 757.652,686.481 743.469,686.481Z"/>
                                </g>
                            </g>
                            <g>
                                <g transform="matrix(1,0,0,0.430464,-196.439,172.956)">
                                    <path d="M923.532,703.894C944.536,703.894 966.797,689.712 966.797,665.476C966.797,659.193 965.361,652.371 962.309,645.549L945.972,608.208C937.714,589.538 925.147,577.689 904.323,577.689C896.603,577.689 889.602,579.664 883.498,583.793C877.035,579.844 869.136,577.689 861.057,577.689C840.233,577.689 827.666,589.538 819.408,608.208L803.071,645.549C800.019,652.371 798.583,659.193 798.583,665.476C798.583,689.712 820.844,703.894 841.848,703.894C849.209,703.894 856.031,702.099 862.135,698.15C868.597,702.099 876.317,703.894 884.934,703.894C892.654,703.894 898.937,702.458 904.861,699.586C910.247,702.279 917.069,703.894 923.532,703.894Z"/>
                                </g>
                                <g transform="matrix(1,0,0,0.430464,-196.439,172.956)">
                                    <path d="M904.323,586.486C920.659,586.486 930.892,595.462 937.894,611.44L954.589,650.037C956.744,655.064 958,660.27 958,665.476C958,683.788 940.946,695.098 923.711,695.098C916.53,695.098 910.247,692.944 905.041,688.994C899.655,693.123 893.013,695.098 884.934,695.098C875.599,695.098 868.059,692.405 862.135,687.019C856.749,692.225 849.568,695.098 841.848,695.098C824.435,695.098 807.38,683.788 807.38,665.476C807.38,660.27 808.637,655.064 810.791,650.037L827.487,611.44C834.488,595.462 844.721,586.486 861.057,586.486C870.034,586.486 877.574,589.358 883.498,594.924C889.243,589.358 896.244,586.486 904.323,586.486Z"/>
                                    <path d="M904.323,586.486C920.659,586.486 930.892,595.462 937.894,611.44L954.589,650.037C956.744,655.064 958,660.27 958,665.476C958,683.788 940.946,695.098 923.711,695.098C916.53,695.098 910.247,692.944 905.041,688.994C899.655,693.123 893.013,695.098 884.934,695.098C875.599,695.098 868.059,692.405 862.135,687.019C856.749,692.225 849.568,695.098 841.848,695.098C824.435,695.098 807.38,683.788 807.38,665.476C807.38,660.27 808.637,655.064 810.791,650.037L827.487,611.44C834.488,595.462 844.721,586.486 861.057,586.486C870.034,586.486 877.574,589.358 883.498,594.924C889.243,589.358 896.244,586.486 904.323,586.486Z"/>
                                </g>
                                <g transform="matrix(1,0,0,0.430464,-196.439,172.956)">
                                    <path d="M904.323,595.103C895.347,595.103 888.525,600.13 883.857,609.644L892.654,629.572C893.013,630.29 893.192,631.008 893.192,631.546C893.192,633.521 891.397,635.675 888.884,635.675C886.909,635.675 885.473,634.778 884.755,632.983L875.24,611.26C874.701,610.004 874.701,609.106 875.24,607.849L878.112,601.745C873.445,597.257 868.059,595.103 861.057,595.103C848.85,595.103 841.848,600.668 835.565,614.851L818.69,653.448C816.895,657.398 815.997,661.527 815.997,665.476C815.997,680.556 831.795,686.481 841.848,686.481C850.645,686.481 857.467,681.454 862.135,671.939L853.517,652.012C853.158,651.294 852.979,650.576 852.979,649.858C852.979,647.704 854.774,645.908 857.287,645.908C859.442,645.908 860.698,646.806 861.417,648.601L870.931,670.324C871.47,671.58 871.29,672.478 870.931,673.555C869.854,675.889 868.777,678.223 867.7,680.018C872.008,684.506 877.574,686.481 884.934,686.481C896.962,686.481 904.682,680.556 910.786,666.554L918.685,648.601C919.582,646.806 920.659,645.908 922.634,645.908C925.147,645.908 926.943,647.704 926.943,650.037C926.943,650.755 926.763,651.474 926.404,652.371L918.864,669.964C916.53,675.171 914.017,679.479 911.504,682.89C914.915,685.224 919.223,686.481 923.711,686.481C933.585,686.481 949.383,680.556 949.383,665.476C949.383,661.527 948.486,657.398 946.69,653.448L929.815,614.851C923.532,600.668 916.53,595.103 904.323,595.103Z"/>
                                </g>
                            </g>
                            <g>
                                <g transform="matrix(1,0,0,0.430464,-196.439,172.956)">
                                    <path d="M1092.46,611.26C1092.46,601.207 1088.87,592.59 1082.59,586.845C1075.41,580.382 1067.15,577.689 1054.58,577.689L1024.25,577.689C996.598,577.689 980.441,592.231 980.441,617.544C980.441,625.263 982.775,633.162 986.545,640.343C982.775,647.344 980.441,655.782 980.441,664.22C980.441,690.43 998.393,703.894 1023.89,703.894L1054.94,703.894C1066.97,703.894 1076.13,701.022 1082.59,694.918C1089.05,688.994 1092.46,680.556 1092.46,670.503C1092.46,661.527 1089.77,654.884 1084.57,649.678C1085.46,646.985 1086,643.754 1086,640.702C1086,637.83 1085.28,634.957 1084.57,632.264C1089.41,626.879 1092.46,619.339 1092.46,611.26Z"/>
                                </g>
                                <g transform="matrix(1,0,0,0.430464,-196.439,172.956)">
                                    <path d="M1083.67,611.26C1083.67,619.159 1080.44,625.622 1073.97,629.392C1075.95,632.624 1077.2,636.753 1077.2,640.702C1077.2,644.831 1075.95,648.781 1073.79,652.192C1079.9,655.782 1083.67,662.245 1083.67,670.503C1083.67,677.864 1081.33,683.967 1076.85,688.276C1071.82,692.944 1064.64,695.098 1054.94,695.098L1024.96,695.098C1013.11,695.098 1004.32,692.225 998.034,686.481C992.289,681.274 989.058,673.375 989.058,664.22C989.058,655.782 991.93,647.524 996.598,640.702C992.11,633.521 989.058,625.263 989.058,617.544C989.058,608.388 992.289,600.489 998.034,595.103C1004.32,589.358 1013.11,586.486 1024.96,586.486L1054.58,586.486C1065,586.486 1071.46,588.461 1076.85,593.308C1081.33,597.437 1083.67,603.72 1083.67,611.26Z"/>
                                    <path d="M1083.67,611.26C1083.67,619.159 1080.44,625.622 1073.97,629.392C1075.95,632.624 1077.2,636.753 1077.2,640.702C1077.2,644.831 1075.95,648.781 1073.79,652.192C1079.9,655.782 1083.67,662.245 1083.67,670.503C1083.67,677.864 1081.33,683.967 1076.85,688.276C1071.82,692.944 1064.64,695.098 1054.94,695.098L1024.96,695.098C1013.11,695.098 1004.32,692.225 998.034,686.481C992.289,681.274 989.058,673.375 989.058,664.22C989.058,655.782 991.93,647.524 996.598,640.702C992.11,633.521 989.058,625.263 989.058,617.544C989.058,608.388 992.289,600.489 998.034,595.103C1004.32,589.358 1013.11,586.486 1024.96,586.486L1054.58,586.486C1065,586.486 1071.46,588.461 1076.85,593.308C1081.33,597.437 1083.67,603.72 1083.67,611.26Z"/>
                                </g>
                                <g transform="matrix(1,0,0,0.430464,-196.439,172.956)">
                                    <path d="M1038.97,629.931C1045.25,632.085 1053.69,632.803 1060.33,632.803C1062.12,632.803 1065.36,632.624 1065.89,632.444C1067.51,634.778 1068.59,637.65 1068.59,640.702C1068.59,643.934 1067.33,646.806 1065.71,649.14C1064.1,648.96 1061.77,648.781 1060.33,648.781C1052.43,648.781 1045.61,649.858 1039.14,651.833C1037.17,652.371 1036.09,653.807 1036.09,655.782C1036.09,658.654 1038.25,660.091 1040.4,660.091C1043.99,660.091 1048.66,657.398 1060.33,657.398C1069.49,657.398 1075.05,662.424 1075.05,670.503C1075.05,677.325 1072.9,686.481 1054.94,686.481L1024.96,686.481C1015.09,686.481 1008.45,684.326 1003.96,680.018C1000.01,676.427 997.675,670.683 997.675,664.22C997.675,656.68 1000.55,649.499 1005.22,643.574C1005.93,642.677 1006.29,641.6 1006.29,640.702C1006.29,639.804 1005.75,638.727 1005.22,638.009C1000.37,631.726 997.675,624.365 997.675,617.544C997.675,610.901 1000.01,605.336 1003.96,601.566C1008.63,597.257 1015.09,595.103 1024.96,595.103L1054.94,595.103C1073.08,595.103 1075.05,604.438 1075.05,611.26C1075.05,618.98 1069.66,624.186 1060.33,624.186C1049.02,624.186 1042.91,621.493 1040.22,621.493C1037.35,621.493 1036.09,623.647 1036.09,625.802C1036.09,628.135 1037.17,629.213 1038.97,629.931Z"/>
                                </g>
                            </g>
                        </g>
                        <g>
                            <g>
                                <g transform="matrix(1,0,0,0.430464,-36.3249,228.072)">
                                    <path d="M625.522,703.894C650.117,703.894 665.915,687.378 665.915,661.706L665.915,651.294C681.713,645.729 690.689,631.905 690.689,615.928C690.689,592.769 673.994,577.689 648.322,577.689L602.184,577.689C576.333,577.689 559.996,592.769 559.996,615.928C559.996,633.342 569.331,646.267 585.129,651.474L585.129,661.706C585.129,687.378 600.748,703.894 625.522,703.894Z"/>
                                </g>
                                <g transform="matrix(1,0,0,0.430464,-36.3249,228.072)">
                                    <path d="M625.522,695.098C606.134,695.098 593.926,681.993 593.926,661.706L593.926,644.652C578.487,641.959 568.793,631.187 568.793,615.928C568.793,598.155 581.898,586.486 602.184,586.486L648.322,586.486C668.608,586.486 681.713,598.155 681.713,615.928C681.713,631.367 671.121,641.779 657.118,644.652L657.118,661.706C657.118,681.993 644.731,695.098 625.522,695.098Z" style="fill:rgb(242,64,112);"/>
                                    <path d="M625.522,695.098C606.134,695.098 593.926,681.993 593.926,661.706L593.926,644.652C578.487,641.959 568.793,631.187 568.793,615.928C568.793,598.155 581.898,586.486 602.184,586.486L648.322,586.486C668.608,586.486 681.713,598.155 681.713,615.928C681.713,631.367 671.121,641.779 657.118,644.652L657.118,661.706C657.118,681.993 644.731,695.098 625.522,695.098Z" style="fill:rgb(242,64,112);"/>
                                </g>
                                <g transform="matrix(1,0,0,0.430464,-36.3249,228.072)">
                                    <path d="M602.184,636.573C586.566,636.573 577.41,628.854 577.41,615.928C577.41,602.823 586.566,595.103 602.184,595.103L648.501,595.103C663.94,595.103 673.096,602.823 673.096,615.928C673.096,627.776 665.736,634.778 652.271,636.394C650.117,636.753 648.501,638.009 648.501,640.702L648.501,661.706C648.501,677.145 639.884,686.481 625.522,686.481C611.16,686.481 602.543,677.145 602.543,661.706L602.543,645.19L622.65,645.19C625.163,645.19 626.958,643.395 626.958,640.882C626.958,638.548 625.163,636.573 622.65,636.573L602.184,636.573Z" style="fill:rgb(96,6,31);"/>
                                </g>
                            </g>
                            <g>
                                <g transform="matrix(1,0,0,0.430464,-36.3249,228.072)">
                                    <path d="M743.469,703.894C767.885,703.894 783.683,687.378 783.683,661.706L783.683,619.698C783.683,594.385 767.885,577.689 743.469,577.689C719.054,577.689 703.256,594.205 703.256,619.877L703.256,661.886C703.256,687.199 719.054,703.894 743.469,703.894Z"/>
                                </g>
                                <g transform="matrix(1,0,0,0.430464,-36.3249,228.072)">
                                    <path d="M743.469,695.098C724.44,695.098 712.053,681.993 712.053,661.886L712.053,619.877C712.053,599.591 724.44,586.486 743.469,586.486C762.499,586.486 774.886,599.591 774.886,619.698L774.886,661.706C774.886,681.993 762.499,695.098 743.469,695.098Z" style="fill:rgb(242,64,112);"/>
                                    <path d="M743.469,695.098C724.44,695.098 712.053,681.993 712.053,661.886L712.053,619.877C712.053,599.591 724.44,586.486 743.469,586.486C762.499,586.486 774.886,599.591 774.886,619.698L774.886,661.706C774.886,681.993 762.499,695.098 743.469,695.098Z" style="fill:rgb(242,64,112);"/>
                                </g>
                                <g transform="matrix(1,0,0,0.430464,-36.3249,228.072)">
                                    <path d="M743.469,686.481C729.287,686.481 720.67,677.145 720.67,661.886L720.67,619.877C720.67,604.438 729.287,595.103 743.469,595.103C757.652,595.103 766.269,604.438 766.269,619.698L766.269,661.706C766.269,677.145 757.652,686.481 743.469,686.481Z" style="fill:rgb(96,6,31);"/>
                                </g>
                            </g>
                            <g>
                                <g transform="matrix(1,0,0,0.430464,-36.3249,228.072)">
                                    <path d="M923.532,703.894C944.536,703.894 966.797,689.712 966.797,665.476C966.797,659.193 965.361,652.371 962.309,645.549L945.972,608.208C937.714,589.538 925.147,577.689 904.323,577.689C896.603,577.689 889.602,579.664 883.498,583.793C877.035,579.844 869.136,577.689 861.057,577.689C840.233,577.689 827.666,589.538 819.408,608.208L803.071,645.549C800.019,652.371 798.583,659.193 798.583,665.476C798.583,689.712 820.844,703.894 841.848,703.894C849.209,703.894 856.031,702.099 862.135,698.15C868.597,702.099 876.317,703.894 884.934,703.894C892.654,703.894 898.937,702.458 904.861,699.586C910.247,702.279 917.069,703.894 923.532,703.894Z"/>
                                </g>
                                <g transform="matrix(1,0,0,0.430464,-36.3249,228.072)">
                                    <path d="M904.323,586.486C920.659,586.486 930.892,595.462 937.894,611.44L954.589,650.037C956.744,655.064 958,660.27 958,665.476C958,683.788 940.946,695.098 923.711,695.098C916.53,695.098 910.247,692.944 905.041,688.994C899.655,693.123 893.013,695.098 884.934,695.098C875.599,695.098 868.059,692.405 862.135,687.019C856.749,692.225 849.568,695.098 841.848,695.098C824.435,695.098 807.38,683.788 807.38,665.476C807.38,660.27 808.637,655.064 810.791,650.037L827.487,611.44C834.488,595.462 844.721,586.486 861.057,586.486C870.034,586.486 877.574,589.358 883.498,594.924C889.243,589.358 896.244,586.486 904.323,586.486Z" style="fill:rgb(242,64,112);"/>
                                    <path d="M904.323,586.486C920.659,586.486 930.892,595.462 937.894,611.44L954.589,650.037C956.744,655.064 958,660.27 958,665.476C958,683.788 940.946,695.098 923.711,695.098C916.53,695.098 910.247,692.944 905.041,688.994C899.655,693.123 893.013,695.098 884.934,695.098C875.599,695.098 868.059,692.405 862.135,687.019C856.749,692.225 849.568,695.098 841.848,695.098C824.435,695.098 807.38,683.788 807.38,665.476C807.38,660.27 808.637,655.064 810.791,650.037L827.487,611.44C834.488,595.462 844.721,586.486 861.057,586.486C870.034,586.486 877.574,589.358 883.498,594.924C889.243,589.358 896.244,586.486 904.323,586.486Z" style="fill:rgb(242,64,112);"/>
                                </g>
                                <g transform="matrix(1,0,0,0.430464,-36.3249,228.072)">
                                    <path d="M904.323,595.103C895.347,595.103 888.525,600.13 883.857,609.644L892.654,629.572C893.013,630.29 893.192,631.008 893.192,631.546C893.192,633.521 891.397,635.675 888.884,635.675C886.909,635.675 885.473,634.778 884.755,632.983L875.24,611.26C874.701,610.004 874.701,609.106 875.24,607.849L878.112,601.745C873.445,597.257 868.059,595.103 861.057,595.103C848.85,595.103 841.848,600.668 835.565,614.851L818.69,653.448C816.895,657.398 815.997,661.527 815.997,665.476C815.997,680.556 831.795,686.481 841.848,686.481C850.645,686.481 857.467,681.454 862.135,671.939L853.517,652.012C853.158,651.294 852.979,650.576 852.979,649.858C852.979,647.704 854.774,645.908 857.287,645.908C859.442,645.908 860.698,646.806 861.417,648.601L870.931,670.324C871.47,671.58 871.29,672.478 870.931,673.555C869.854,675.889 868.777,678.223 867.7,680.018C872.008,684.506 877.574,686.481 884.934,686.481C896.962,686.481 904.682,680.556 910.786,666.554L918.685,648.601C919.582,646.806 920.659,645.908 922.634,645.908C925.147,645.908 926.943,647.704 926.943,650.037C926.943,650.755 926.763,651.474 926.404,652.371L918.864,669.964C916.53,675.171 914.017,679.479 911.504,682.89C914.915,685.224 919.223,686.481 923.711,686.481C933.585,686.481 949.383,680.556 949.383,665.476C949.383,661.527 948.486,657.398 946.69,653.448L929.815,614.851C923.532,600.668 916.53,595.103 904.323,595.103Z" style="fill:rgb(96,6,31);"/>
                                </g>
                            </g>
                            <g>
                                <g transform="matrix(1,0,0,0.430464,-36.3249,228.072)">
                                    <path d="M1092.46,611.26C1092.46,601.207 1088.87,592.59 1082.59,586.845C1075.41,580.382 1067.15,577.689 1054.58,577.689L1024.25,577.689C996.598,577.689 980.441,592.231 980.441,617.544C980.441,625.263 982.775,633.162 986.545,640.343C982.775,647.344 980.441,655.782 980.441,664.22C980.441,690.43 998.393,703.894 1023.89,703.894L1054.94,703.894C1066.97,703.894 1076.13,701.022 1082.59,694.918C1089.05,688.994 1092.46,680.556 1092.46,670.503C1092.46,661.527 1089.77,654.884 1084.57,649.678C1085.46,646.985 1086,643.754 1086,640.702C1086,637.83 1085.28,634.957 1084.57,632.264C1089.41,626.879 1092.46,619.339 1092.46,611.26Z"/>
                                </g>
                                <g transform="matrix(1,0,0,0.430464,-36.3249,228.072)">
                                    <path d="M1083.67,611.26C1083.67,619.159 1080.44,625.622 1073.97,629.392C1075.95,632.624 1077.2,636.753 1077.2,640.702C1077.2,644.831 1075.95,648.781 1073.79,652.192C1079.9,655.782 1083.67,662.245 1083.67,670.503C1083.67,677.864 1081.33,683.967 1076.85,688.276C1071.82,692.944 1064.64,695.098 1054.94,695.098L1024.96,695.098C1013.11,695.098 1004.32,692.225 998.034,686.481C992.289,681.274 989.058,673.375 989.058,664.22C989.058,655.782 991.93,647.524 996.598,640.702C992.11,633.521 989.058,625.263 989.058,617.544C989.058,608.388 992.289,600.489 998.034,595.103C1004.32,589.358 1013.11,586.486 1024.96,586.486L1054.58,586.486C1065,586.486 1071.46,588.461 1076.85,593.308C1081.33,597.437 1083.67,603.72 1083.67,611.26Z" style="fill:rgb(242,64,112);"/>
                                    <path d="M1083.67,611.26C1083.67,619.159 1080.44,625.622 1073.97,629.392C1075.95,632.624 1077.2,636.753 1077.2,640.702C1077.2,644.831 1075.95,648.781 1073.79,652.192C1079.9,655.782 1083.67,662.245 1083.67,670.503C1083.67,677.864 1081.33,683.967 1076.85,688.276C1071.82,692.944 1064.64,695.098 1054.94,695.098L1024.96,695.098C1013.11,695.098 1004.32,692.225 998.034,686.481C992.289,681.274 989.058,673.375 989.058,664.22C989.058,655.782 991.93,647.524 996.598,640.702C992.11,633.521 989.058,625.263 989.058,617.544C989.058,608.388 992.289,600.489 998.034,595.103C1004.32,589.358 1013.11,586.486 1024.96,586.486L1054.58,586.486C1065,586.486 1071.46,588.461 1076.85,593.308C1081.33,597.437 1083.67,603.72 1083.67,611.26Z" style="fill:rgb(242,64,112);"/>
                                </g>
                                <g transform="matrix(1,0,0,0.430464,-36.3249,228.072)">
                                    <path d="M1038.97,629.931C1045.25,632.085 1053.69,632.803 1060.33,632.803C1062.12,632.803 1065.36,632.624 1065.89,632.444C1067.51,634.778 1068.59,637.65 1068.59,640.702C1068.59,643.934 1067.33,646.806 1065.71,649.14C1064.1,648.96 1061.77,648.781 1060.33,648.781C1052.43,648.781 1045.61,649.858 1039.14,651.833C1037.17,652.371 1036.09,653.807 1036.09,655.782C1036.09,658.654 1038.25,660.091 1040.4,660.091C1043.99,660.091 1048.66,657.398 1060.33,657.398C1069.49,657.398 1075.05,662.424 1075.05,670.503C1075.05,677.325 1072.9,686.481 1054.94,686.481L1024.96,686.481C1015.09,686.481 1008.45,684.326 1003.96,680.018C1000.01,676.427 997.675,670.683 997.675,664.22C997.675,656.68 1000.55,649.499 1005.22,643.574C1005.93,642.677 1006.29,641.6 1006.29,640.702C1006.29,639.804 1005.75,638.727 1005.22,638.009C1000.37,631.726 997.675,624.365 997.675,617.544C997.675,610.901 1000.01,605.336 1003.96,601.566C1008.63,597.257 1015.09,595.103 1024.96,595.103L1054.94,595.103C1073.08,595.103 1075.05,604.438 1075.05,611.26C1075.05,618.98 1069.66,624.186 1060.33,624.186C1049.02,624.186 1042.91,621.493 1040.22,621.493C1037.35,621.493 1036.09,623.647 1036.09,625.802C1036.09,628.135 1037.17,629.213 1038.97,629.931Z" style="fill:rgb(96,6,31);"/>
                                </g>
                            </g>
                        </g>
                    </g>
                    <g>
                        <g transform="matrix(1,0,0,1,24.0513,59.3406)">
                            <g>
                                <g transform="matrix(1,0,0,0.430464,-84.0884,233.389)">
                                    <path d="M604.338,577.689C580.641,577.689 562.33,593.487 562.33,616.107C562.33,622.032 563.766,628.494 566.279,634.778L582.257,673.375C586.386,683.249 591.054,690.071 596.798,694.918C603.979,701.022 612.417,703.894 622.829,703.894C633.242,703.894 641.5,701.022 648.681,694.918C654.426,690.071 659.093,683.07 663.222,673.375L679.559,634.778C682.252,628.674 683.329,622.391 683.329,616.107C683.329,591.513 663.222,577.689 641.32,577.689C634.678,577.689 628.574,579.305 623.009,582.716C617.444,579.305 611.34,577.689 604.338,577.689Z"/>
                                </g>
                                <g transform="matrix(1,0,0,0.430464,-84.0884,233.389)">
                                    <path d="M604.338,586.486C611.519,586.486 617.803,588.999 623.009,593.667C628.215,588.999 634.498,586.486 641.32,586.486C658.734,586.486 674.532,597.078 674.532,616.107C674.532,621.134 673.635,626.34 671.48,631.546L655.144,670.144C651.553,678.402 647.783,684.147 643.116,688.096C637.73,692.764 631.087,695.098 622.829,695.098C614.571,695.098 608.108,692.764 602.543,688.096C597.696,684.147 593.926,678.582 590.336,670.144L574.358,631.546C572.204,626.52 571.127,621.134 571.127,616.107C571.127,598.694 585.668,586.486 604.338,586.486Z"/>
                                </g>
                                <g transform="matrix(1,0,0,0.430464,-84.0884,233.389)">
                                    <path d="M641.5,629.572C641.679,629.931 642.038,631.008 642.038,631.726C642.038,633.701 639.884,635.675 637.55,635.675C635.576,635.675 634.319,634.778 633.601,632.983L624.445,611.26C619.957,600.309 613.494,595.103 604.338,595.103C588.002,595.103 579.744,606.054 579.744,616.107C579.744,619.877 580.641,624.006 582.437,628.135L598.414,666.554C604.338,680.736 611.34,686.481 622.829,686.481C634.498,686.481 641.32,680.736 647.424,666.554L663.402,628.135C665.197,624.006 665.915,619.877 665.915,616.107C665.915,603.72 654.785,595.103 641.32,595.103C636.653,595.103 632.344,597.078 628.395,600.309C630.01,602.643 631.267,604.977 632.524,607.849L641.5,629.572Z"/>
                                    <path d="M641.5,629.572C641.679,629.931 642.038,631.008 642.038,631.726C642.038,633.701 639.884,635.675 637.55,635.675C635.576,635.675 634.319,634.778 633.601,632.983L624.445,611.26C619.957,600.309 613.494,595.103 604.338,595.103C588.002,595.103 579.744,606.054 579.744,616.107C579.744,619.877 580.641,624.006 582.437,628.135L598.414,666.554C604.338,680.736 611.34,686.481 622.829,686.481C634.498,686.481 641.32,680.736 647.424,666.554L663.402,628.135C665.197,624.006 665.915,619.877 665.915,616.107C665.915,603.72 654.785,595.103 641.32,595.103C636.653,595.103 632.344,597.078 628.395,600.309C630.01,602.643 631.267,604.977 632.524,607.849L641.5,629.572Z"/>
                                </g>
                            </g>
                            <g>
                                <g transform="matrix(1,0,0,0.430464,-84.0884,233.389)">
                                    <path d="M738.443,703.894C762.858,703.894 778.656,687.378 778.656,661.706L778.656,619.698C778.656,594.385 762.858,577.689 738.443,577.689C714.027,577.689 698.229,594.205 698.229,619.877L698.229,661.886C698.229,687.199 714.027,703.894 738.443,703.894Z"/>
                                </g>
                                <g transform="matrix(1,0,0,0.430464,-84.0884,233.389)">
                                    <path d="M738.443,695.098C719.413,695.098 707.026,681.993 707.026,661.886L707.026,619.877C707.026,599.591 719.413,586.486 738.443,586.486C757.472,586.486 769.859,599.591 769.859,619.698L769.859,661.706C769.859,681.993 757.472,695.098 738.443,695.098Z"/>
                                    <path d="M738.443,695.098C719.413,695.098 707.026,681.993 707.026,661.886L707.026,619.877C707.026,599.591 719.413,586.486 738.443,586.486C757.472,586.486 769.859,599.591 769.859,619.698L769.859,661.706C769.859,681.993 757.472,695.098 738.443,695.098Z"/>
                                </g>
                                <g transform="matrix(1,0,0,0.430464,-84.0884,233.389)">
                                    <path d="M738.443,686.481C724.26,686.481 715.643,677.145 715.643,661.886L715.643,619.877C715.643,604.438 724.26,595.103 738.443,595.103C752.625,595.103 761.242,604.438 761.242,619.698L761.242,661.706C761.242,677.145 752.625,686.481 738.443,686.481Z"/>
                                </g>
                            </g>
                            <g>
                                <g transform="matrix(1,0,0,0.430464,-84.0884,233.389)">
                                    <path d="M838.976,577.689C813.125,577.689 796.429,593.846 796.429,617.544C796.429,623.468 797.686,629.392 799.481,634.239C797.686,638.548 796.429,644.293 796.429,650.935L796.429,661.886C796.429,687.199 812.227,703.894 836.642,703.894C844.362,703.894 851.543,702.279 857.826,698.868C863.93,702.638 869.854,703.894 877.574,703.894C888.704,703.894 898.937,699.765 906.836,692.225C914.196,685.044 918.864,675.35 918.864,665.476C918.864,660.091 917.248,653.269 914.556,647.344C917.248,641.241 918.864,633.701 918.864,626.34C918.864,610.901 914.196,597.796 904.682,589.179C896.244,581.639 886.729,577.689 871.47,577.689L838.976,577.689Z"/>
                                </g>
                                <g transform="matrix(1,0,0,0.430464,-84.0884,233.389)">
                                    <path d="M871.47,586.486C884.396,586.486 892.115,589.538 898.757,595.642C906.297,602.643 910.067,613.414 910.067,626.34C910.067,634.239 908.093,641.6 904.682,647.524C907.913,652.371 910.067,660.091 910.067,665.476C910.067,682.711 893.731,695.098 877.574,695.098C870.034,695.098 863.391,692.764 858.006,688.096C852.62,692.584 844.721,695.098 836.642,695.098C817.613,695.098 805.226,681.993 805.226,661.886L805.226,650.935C805.226,643.574 806.662,638.727 809.355,634.419C806.482,629.392 805.226,624.186 805.226,617.544C805.226,599.232 818.51,586.486 838.976,586.486L871.47,586.486Z"/>
                                    <path d="M871.47,586.486C884.396,586.486 892.115,589.538 898.757,595.642C906.297,602.643 910.067,613.414 910.067,626.34C910.067,634.239 908.093,641.6 904.682,647.524C907.913,652.371 910.067,660.091 910.067,665.476C910.067,682.711 893.731,695.098 877.574,695.098C870.034,695.098 863.391,692.764 858.006,688.096C852.62,692.584 844.721,695.098 836.642,695.098C817.613,695.098 805.226,681.993 805.226,661.886L805.226,650.935C805.226,643.574 806.662,638.727 809.355,634.419C806.482,629.392 805.226,624.186 805.226,617.544C805.226,599.232 818.51,586.486 838.976,586.486L871.47,586.486Z"/>
                                </g>
                                <g transform="matrix(1,0,0,0.430464,-84.0884,233.389)">
                                    <path d="M870.931,595.103C881.164,595.103 887.627,597.078 892.833,602.464C898.578,608.208 901.45,616.646 901.45,626.34C901.45,640.523 894.449,651.474 882.959,654.884C881.164,655.423 879.907,656.5 879.907,659.014C879.907,661.527 881.703,662.963 883.857,662.963C887.986,662.963 893.91,659.552 898.578,655.423C900.373,658.295 901.45,661.347 901.45,665.476C901.45,675.709 891.756,686.481 877.574,686.481C870.752,686.481 865.187,683.608 860.698,678.223L845.439,660.27C844.721,659.373 843.644,658.834 842.387,658.834C839.874,658.834 837.899,660.988 837.899,663.143C837.899,664.04 838.258,664.938 838.976,665.835L852.081,681.993C848.311,685.224 842.746,686.481 836.642,686.481C822.46,686.481 813.843,677.145 813.843,661.886L813.843,651.294C813.843,641.061 818.151,634.06 828.205,629.213C830.718,628.135 831.616,626.879 831.616,624.904C831.616,622.75 830.179,621.493 827.666,621.493C824.973,621.493 819.947,623.288 815.458,627.597C814.381,624.724 813.843,621.314 813.843,617.544C813.843,603.72 822.998,595.103 838.437,595.103L870.931,595.103Z"/>
                                </g>
                                <g transform="matrix(1,0,0,0.430464,-84.0884,233.389)">
                                    <path d="M856.569,631.367C856.569,633.88 858.544,635.675 860.878,635.675C863.391,635.675 865.187,633.88 865.187,631.367L865.187,621.493C865.187,619.339 863.391,617.364 860.878,617.364C858.544,617.364 856.569,619.339 856.569,621.493L856.569,631.367Z"/>
                                    <path d="M856.569,631.367C856.569,633.88 858.544,635.675 860.878,635.675C863.391,635.675 865.187,633.88 865.187,631.367L865.187,621.493C865.187,619.339 863.391,617.364 860.878,617.364C858.544,617.364 856.569,619.339 856.569,621.493L856.569,631.367Z"/>
                                </g>
                            </g>
                            <g>
                                <g transform="matrix(1,0,0,0.430464,-84.0884,233.389)">
                                    <path d="M975.235,577.689C951.178,577.689 935.739,594.385 935.739,619.698L935.739,646.806C935.739,665.656 941.484,680.377 952.794,690.251C963.206,699.586 977.568,703.894 996.777,703.894C1014.37,703.894 1029.27,698.868 1039.86,688.994C1050.28,679.12 1055.84,665.656 1055.84,649.499L1055.84,619.698C1055.84,594.385 1040.22,577.689 1016.35,577.689C1008.63,577.689 1001.45,579.484 995.88,582.895C989.956,579.484 982.954,577.689 975.235,577.689Z"/>
                                </g>
                                <g transform="matrix(1,0,0,0.430464,-84.0884,233.389)">
                                    <path d="M975.235,586.486C983.493,586.486 990.674,589.179 995.88,593.846C1001.09,589.179 1008.09,586.486 1016.35,586.486C1035.02,586.486 1047.04,599.591 1047.04,619.698L1047.04,649.499C1047.04,663.143 1042.56,674.632 1033.94,682.531C1025.14,690.789 1012.22,695.098 996.777,695.098C979.902,695.098 967.336,691.328 958.539,683.608C949.204,675.709 944.536,663.143 944.536,646.806L944.536,619.698C944.536,599.591 956.564,586.486 975.235,586.486Z"/>
                                    <path d="M975.235,586.486C983.493,586.486 990.674,589.179 995.88,593.846C1001.09,589.179 1008.09,586.486 1016.35,586.486C1035.02,586.486 1047.04,599.591 1047.04,619.698L1047.04,649.499C1047.04,663.143 1042.56,674.632 1033.94,682.531C1025.14,690.789 1012.22,695.098 996.777,695.098C979.902,695.098 967.336,691.328 958.539,683.608C949.204,675.709 944.536,663.143 944.536,646.806L944.536,619.698C944.536,599.591 956.564,586.486 975.235,586.486Z"/>
                                </g>
                                <g transform="matrix(1,0,0,0.430464,-84.0884,233.389)">
                                    <path d="M1016.35,595.103C1010.06,595.103 1004.86,597.078 1001.27,600.489C1004.32,605.874 1005.93,612.337 1005.93,619.877L1005.93,647.883C1005.93,650.576 1004.5,652.192 1001.62,652.192L989.417,652.192C986.904,652.192 985.108,650.217 985.108,647.883C985.108,645.549 986.904,643.574 989.417,643.574L997.316,643.574L997.316,619.698C997.316,604.438 989.058,595.103 975.235,595.103C961.411,595.103 953.153,604.438 953.153,619.698L953.153,646.806C953.153,673.734 966.976,686.481 996.777,686.481C1019.76,686.481 1038.43,674.991 1038.43,649.499L1038.43,619.698C1038.43,604.438 1030.17,595.103 1016.35,595.103Z"/>
                                </g>
                            </g>
                            <g transform="matrix(1,0,0,1,12.1172,4.22426)">
                                <g>
                                    <g transform="matrix(1,0,0,0.430464,-96.2056,229.165)">
                                        <path d="M1182.23,617.364C1182.23,606.054 1177.74,595.642 1170.2,588.64C1162.3,581.28 1151.89,577.689 1137.7,577.689L1116.88,577.689C1103.06,577.689 1092.28,581.28 1084.38,588.64C1076.85,595.462 1072.36,606.054 1072.36,617.364C1072.36,623.468 1073.43,632.264 1078.46,641.42C1074.87,648.063 1072.36,655.782 1072.36,664.04C1072.36,675.709 1076.67,685.763 1084.21,692.944C1092.28,700.304 1102.7,703.894 1116.88,703.894L1137.7,703.894C1151.89,703.894 1162.3,700.304 1170.2,692.944C1177.74,685.583 1182.23,675.709 1182.23,664.22C1182.23,657.936 1181.33,649.858 1175.94,640.343C1179.89,633.88 1182.23,625.802 1182.23,617.364Z"/>
                                    </g>
                                    <g transform="matrix(1,0,0,0.430464,-96.2056,229.165)">
                                        <path d="M1173.43,617.364C1173.43,626.161 1170.38,634.419 1165.53,639.984C1171.99,648.96 1173.43,658.116 1173.43,664.22C1173.43,673.196 1170.02,681.095 1164.45,686.481C1158.17,692.225 1149.55,695.098 1137.7,695.098L1116.88,695.098C1105.03,695.098 1096.41,692.225 1090.13,686.481C1084.38,681.095 1081.15,673.196 1081.15,664.04C1081.15,655.423 1084.03,647.344 1088.87,641.6C1082.41,632.624 1081.15,623.468 1081.15,617.364C1081.15,608.388 1084.38,600.309 1090.13,595.103C1096.41,589.358 1105.03,586.486 1116.88,586.486L1137.7,586.486C1149.55,586.486 1158.17,589.358 1164.45,595.103C1170.02,600.309 1173.43,608.388 1173.43,617.364Z"/>
                                        <path d="M1173.43,617.364C1173.43,626.161 1170.38,634.419 1165.53,639.984C1171.99,648.96 1173.43,658.116 1173.43,664.22C1173.43,673.196 1170.02,681.095 1164.45,686.481C1158.17,692.225 1149.55,695.098 1137.7,695.098L1116.88,695.098C1105.03,695.098 1096.41,692.225 1090.13,686.481C1084.38,681.095 1081.15,673.196 1081.15,664.04C1081.15,655.423 1084.03,647.344 1088.87,641.6C1082.41,632.624 1081.15,623.468 1081.15,617.364C1081.15,608.388 1084.38,600.309 1090.13,595.103C1096.41,589.358 1105.03,586.486 1116.88,586.486L1137.7,586.486C1149.55,586.486 1158.17,589.358 1164.45,595.103C1170.02,600.309 1173.43,608.388 1173.43,617.364Z"/>
                                    </g>
                                    <g transform="matrix(1,0,0,0.430464,-96.2056,229.165)">
                                        <path d="M1133.22,616.466C1131.78,615.569 1130.88,615.389 1129.81,615.389C1127.47,615.389 1125.68,617.364 1125.68,619.339C1125.68,621.493 1126.57,622.57 1127.83,623.288L1145.06,633.162C1151.89,637.112 1157.09,641.959 1160.5,647.883C1163.38,652.73 1164.81,658.295 1164.81,664.22C1164.81,670.683 1162.48,676.248 1158.53,680.018C1153.86,684.326 1147.4,686.481 1137.7,686.481L1116.88,686.481C1107.18,686.481 1100.54,684.506 1095.88,680.018C1092.11,676.427 1089.77,670.683 1089.77,664.04C1089.77,657.936 1091.57,652.371 1094.62,648.242C1097.49,650.935 1101.08,653.448 1105.21,655.782L1121.55,664.938C1122.8,665.656 1123.88,666.015 1124.96,666.015C1127.29,666.015 1129.09,664.04 1129.09,662.065C1129.09,659.911 1128.19,658.834 1126.93,658.116L1109.52,648.242C1097.13,641.241 1089.77,631.367 1089.77,617.364C1089.77,610.901 1092.11,605.156 1095.88,601.566C1100.54,597.078 1107.18,595.103 1116.88,595.103L1137.7,595.103C1147.4,595.103 1153.86,597.257 1158.53,601.566C1162.48,605.336 1164.81,610.901 1164.81,617.364C1164.81,623.647 1163.02,629.213 1159.79,633.342C1156.91,630.469 1153.5,627.956 1149.37,625.622L1133.22,616.466Z"/>
                                    </g>
                                </g>
                            </g>
                        </g>
                        <g>
                            <g>
                                <g transform="matrix(1,0,0,0.430464,-72.1543,288.505)">
                                    <path d="M604.338,577.689C580.641,577.689 562.33,593.487 562.33,616.107C562.33,622.032 563.766,628.494 566.279,634.778L582.257,673.375C586.386,683.249 591.054,690.071 596.798,694.918C603.979,701.022 612.417,703.894 622.829,703.894C633.242,703.894 641.5,701.022 648.681,694.918C654.426,690.071 659.093,683.07 663.222,673.375L679.559,634.778C682.252,628.674 683.329,622.391 683.329,616.107C683.329,591.513 663.222,577.689 641.32,577.689C634.678,577.689 628.574,579.305 623.009,582.716C617.444,579.305 611.34,577.689 604.338,577.689Z"/>
                                </g>
                                <g transform="matrix(1,0,0,0.430464,-72.1543,288.505)">
                                    <path d="M604.338,586.486C611.519,586.486 617.803,588.999 623.009,593.667C628.215,588.999 634.498,586.486 641.32,586.486C658.734,586.486 674.532,597.078 674.532,616.107C674.532,621.134 673.635,626.34 671.48,631.546L655.144,670.144C651.553,678.402 647.783,684.147 643.116,688.096C637.73,692.764 631.087,695.098 622.829,695.098C614.571,695.098 608.108,692.764 602.543,688.096C597.696,684.147 593.926,678.582 590.336,670.144L574.358,631.546C572.204,626.52 571.127,621.134 571.127,616.107C571.127,598.694 585.668,586.486 604.338,586.486Z" style="fill:rgb(182,235,71);"/>
                                </g>
                                <g transform="matrix(1,0,0,0.430464,-72.1543,288.505)">
                                    <path d="M641.5,629.572C641.679,629.931 642.038,631.008 642.038,631.726C642.038,633.701 639.884,635.675 637.55,635.675C635.576,635.675 634.319,634.778 633.601,632.983L624.445,611.26C619.957,600.309 613.494,595.103 604.338,595.103C588.002,595.103 579.744,606.054 579.744,616.107C579.744,619.877 580.641,624.006 582.437,628.135L598.414,666.554C604.338,680.736 611.34,686.481 622.829,686.481C634.498,686.481 641.32,680.736 647.424,666.554L663.402,628.135C665.197,624.006 665.915,619.877 665.915,616.107C665.915,603.72 654.785,595.103 641.32,595.103C636.653,595.103 632.344,597.078 628.395,600.309C630.01,602.643 631.267,604.977 632.524,607.849L641.5,629.572Z" style="fill:rgb(30,72,43);"/>
                                </g>
                            </g>
                            <g>
                                <g transform="matrix(1,0,0,0.430464,-72.1543,288.505)">
                                    <path d="M738.443,703.894C762.858,703.894 778.656,687.378 778.656,661.706L778.656,619.698C778.656,594.385 762.858,577.689 738.443,577.689C714.027,577.689 698.229,594.205 698.229,619.877L698.229,661.886C698.229,687.199 714.027,703.894 738.443,703.894Z"/>
                                </g>
                                <g transform="matrix(1,0,0,0.430464,-72.1543,288.505)">
                                    <path d="M738.443,695.098C719.413,695.098 707.026,681.993 707.026,661.886L707.026,619.877C707.026,599.591 719.413,586.486 738.443,586.486C757.472,586.486 769.859,599.591 769.859,619.698L769.859,661.706C769.859,681.993 757.472,695.098 738.443,695.098Z" style="fill:rgb(182,235,71);"/>
                                    <path d="M738.443,695.098C719.413,695.098 707.026,681.993 707.026,661.886L707.026,619.877C707.026,599.591 719.413,586.486 738.443,586.486C757.472,586.486 769.859,599.591 769.859,619.698L769.859,661.706C769.859,681.993 757.472,695.098 738.443,695.098Z" style="fill:rgb(182,235,71);"/>
                                </g>
                                <g transform="matrix(1,0,0,0.430464,-72.1543,288.505)">
                                    <path d="M738.443,686.481C724.26,686.481 715.643,677.145 715.643,661.886L715.643,619.877C715.643,604.438 724.26,595.103 738.443,595.103C752.625,595.103 761.242,604.438 761.242,619.698L761.242,661.706C761.242,677.145 752.625,686.481 738.443,686.481Z" style="fill:rgb(30,72,43);"/>
                                </g>
                            </g>
                            <g>
                                <g transform="matrix(1,0,0,0.430464,-72.1543,288.505)">
                                    <path d="M838.976,577.689C813.125,577.689 796.429,593.846 796.429,617.544C796.429,623.468 797.686,629.392 799.481,634.239C797.686,638.548 796.429,644.293 796.429,650.935L796.429,661.886C796.429,687.199 812.227,703.894 836.642,703.894C844.362,703.894 851.543,702.279 857.826,698.868C863.93,702.638 869.854,703.894 877.574,703.894C888.704,703.894 898.937,699.765 906.836,692.225C914.196,685.044 918.864,675.35 918.864,665.476C918.864,660.091 917.248,653.269 914.556,647.344C917.248,641.241 918.864,633.701 918.864,626.34C918.864,610.901 914.196,597.796 904.682,589.179C896.244,581.639 886.729,577.689 871.47,577.689L838.976,577.689Z"/>
                                </g>
                                <g transform="matrix(1,0,0,0.430464,-72.1543,288.505)">
                                    <path d="M871.47,586.486C884.396,586.486 892.115,589.538 898.757,595.642C906.297,602.643 910.067,613.414 910.067,626.34C910.067,634.239 908.093,641.6 904.682,647.524C907.913,652.371 910.067,660.091 910.067,665.476C910.067,682.711 893.731,695.098 877.574,695.098C870.034,695.098 863.391,692.764 858.006,688.096C852.62,692.584 844.721,695.098 836.642,695.098C817.613,695.098 805.226,681.993 805.226,661.886L805.226,650.935C805.226,643.574 806.662,638.727 809.355,634.419C806.482,629.392 805.226,624.186 805.226,617.544C805.226,599.232 818.51,586.486 838.976,586.486L871.47,586.486Z" style="fill:rgb(182,235,71);"/>
                                    <path d="M871.47,586.486C884.396,586.486 892.115,589.538 898.757,595.642C906.297,602.643 910.067,613.414 910.067,626.34C910.067,634.239 908.093,641.6 904.682,647.524C907.913,652.371 910.067,660.091 910.067,665.476C910.067,682.711 893.731,695.098 877.574,695.098C870.034,695.098 863.391,692.764 858.006,688.096C852.62,692.584 844.721,695.098 836.642,695.098C817.613,695.098 805.226,681.993 805.226,661.886L805.226,650.935C805.226,643.574 806.662,638.727 809.355,634.419C806.482,629.392 805.226,624.186 805.226,617.544C805.226,599.232 818.51,586.486 838.976,586.486L871.47,586.486Z" style="fill:rgb(182,235,71);"/>
                                </g>
                                <g transform="matrix(1,0,0,0.430464,-72.1543,288.505)">
                                    <path d="M870.931,595.103C881.164,595.103 887.627,597.078 892.833,602.464C898.578,608.208 901.45,616.646 901.45,626.34C901.45,640.523 894.449,651.474 882.959,654.884C881.164,655.423 879.907,656.5 879.907,659.014C879.907,661.527 881.703,662.963 883.857,662.963C887.986,662.963 893.91,659.552 898.578,655.423C900.373,658.295 901.45,661.347 901.45,665.476C901.45,675.709 891.756,686.481 877.574,686.481C870.752,686.481 865.187,683.608 860.698,678.223L845.439,660.27C844.721,659.373 843.644,658.834 842.387,658.834C839.874,658.834 837.899,660.988 837.899,663.143C837.899,664.04 838.258,664.938 838.976,665.835L852.081,681.993C848.311,685.224 842.746,686.481 836.642,686.481C822.46,686.481 813.843,677.145 813.843,661.886L813.843,651.294C813.843,641.061 818.151,634.06 828.205,629.213C830.718,628.135 831.616,626.879 831.616,624.904C831.616,622.75 830.179,621.493 827.666,621.493C824.973,621.493 819.947,623.288 815.458,627.597C814.381,624.724 813.843,621.314 813.843,617.544C813.843,603.72 822.998,595.103 838.437,595.103L870.931,595.103Z" style="fill:rgb(30,72,43);"/>
                                </g>
                                <g transform="matrix(1,0,0,0.430464,-72.1543,288.505)">
                                    <path d="M856.569,631.367C856.569,633.88 858.544,635.675 860.878,635.675C863.391,635.675 865.187,633.88 865.187,631.367L865.187,621.493C865.187,619.339 863.391,617.364 860.878,617.364C858.544,617.364 856.569,619.339 856.569,621.493L856.569,631.367Z" style="fill:rgb(170,226,55);"/>
                                    <path d="M856.569,631.367C856.569,633.88 858.544,635.675 860.878,635.675C863.391,635.675 865.187,633.88 865.187,631.367L865.187,621.493C865.187,619.339 863.391,617.364 860.878,617.364C858.544,617.364 856.569,619.339 856.569,621.493L856.569,631.367Z" style="fill:rgb(170,226,55);"/>
                                </g>
                            </g>
                            <g>
                                <g transform="matrix(1,0,0,0.430464,-72.1543,288.505)">
                                    <path d="M975.235,577.689C951.178,577.689 935.739,594.385 935.739,619.698L935.739,646.806C935.739,665.656 941.484,680.377 952.794,690.251C963.206,699.586 977.568,703.894 996.777,703.894C1014.37,703.894 1029.27,698.868 1039.86,688.994C1050.28,679.12 1055.84,665.656 1055.84,649.499L1055.84,619.698C1055.84,594.385 1040.22,577.689 1016.35,577.689C1008.63,577.689 1001.45,579.484 995.88,582.895C989.956,579.484 982.954,577.689 975.235,577.689Z"/>
                                </g>
                                <g transform="matrix(1,0,0,0.430464,-72.1543,288.505)">
                                    <path d="M975.235,586.486C983.493,586.486 990.674,589.179 995.88,593.846C1001.09,589.179 1008.09,586.486 1016.35,586.486C1035.02,586.486 1047.04,599.591 1047.04,619.698L1047.04,649.499C1047.04,663.143 1042.56,674.632 1033.94,682.531C1025.14,690.789 1012.22,695.098 996.777,695.098C979.902,695.098 967.336,691.328 958.539,683.608C949.204,675.709 944.536,663.143 944.536,646.806L944.536,619.698C944.536,599.591 956.564,586.486 975.235,586.486Z" style="fill:rgb(182,235,71);"/>
                                    <path d="M975.235,586.486C983.493,586.486 990.674,589.179 995.88,593.846C1001.09,589.179 1008.09,586.486 1016.35,586.486C1035.02,586.486 1047.04,599.591 1047.04,619.698L1047.04,649.499C1047.04,663.143 1042.56,674.632 1033.94,682.531C1025.14,690.789 1012.22,695.098 996.777,695.098C979.902,695.098 967.336,691.328 958.539,683.608C949.204,675.709 944.536,663.143 944.536,646.806L944.536,619.698C944.536,599.591 956.564,586.486 975.235,586.486Z" style="fill:rgb(182,235,71);"/>
                                </g>
                                <g transform="matrix(1,0,0,0.430464,-72.1543,288.505)">
                                    <path d="M1016.35,595.103C1010.06,595.103 1004.86,597.078 1001.27,600.489C1004.32,605.874 1005.93,612.337 1005.93,619.877L1005.93,647.883C1005.93,650.576 1004.5,652.192 1001.62,652.192L989.417,652.192C986.904,652.192 985.108,650.217 985.108,647.883C985.108,645.549 986.904,643.574 989.417,643.574L997.316,643.574L997.316,619.698C997.316,604.438 989.058,595.103 975.235,595.103C961.411,595.103 953.153,604.438 953.153,619.698L953.153,646.806C953.153,673.734 966.976,686.481 996.777,686.481C1019.76,686.481 1038.43,674.991 1038.43,649.499L1038.43,619.698C1038.43,604.438 1030.17,595.103 1016.35,595.103Z" style="fill:rgb(30,72,43);"/>
                                </g>
                            </g>
                            <g>
                                <g>
                                    <g transform="matrix(1,0,0,0.430464,-72.1543,288.505)">
                                        <path d="M1182.23,617.364C1182.23,606.054 1177.74,595.642 1170.2,588.64C1162.3,581.28 1151.89,577.689 1137.7,577.689L1116.88,577.689C1103.06,577.689 1092.28,581.28 1084.38,588.64C1076.85,595.462 1072.36,606.054 1072.36,617.364C1072.36,623.468 1073.43,632.264 1078.46,641.42C1074.87,648.063 1072.36,655.782 1072.36,664.04C1072.36,675.709 1076.67,685.763 1084.21,692.944C1092.28,700.304 1102.7,703.894 1116.88,703.894L1137.7,703.894C1151.89,703.894 1162.3,700.304 1170.2,692.944C1177.74,685.583 1182.23,675.709 1182.23,664.22C1182.23,657.936 1181.33,649.858 1175.94,640.343C1179.89,633.88 1182.23,625.802 1182.23,617.364Z"/>
                                    </g>
                                    <g transform="matrix(1,0,0,0.430464,-72.1543,288.505)">
                                        <path d="M1173.43,617.364C1173.43,626.161 1170.38,634.419 1165.53,639.984C1171.99,648.96 1173.43,658.116 1173.43,664.22C1173.43,673.196 1170.02,681.095 1164.45,686.481C1158.17,692.225 1149.55,695.098 1137.7,695.098L1116.88,695.098C1105.03,695.098 1096.41,692.225 1090.13,686.481C1084.38,681.095 1081.15,673.196 1081.15,664.04C1081.15,655.423 1084.03,647.344 1088.87,641.6C1082.41,632.624 1081.15,623.468 1081.15,617.364C1081.15,608.388 1084.38,600.309 1090.13,595.103C1096.41,589.358 1105.03,586.486 1116.88,586.486L1137.7,586.486C1149.55,586.486 1158.17,589.358 1164.45,595.103C1170.02,600.309 1173.43,608.388 1173.43,617.364Z" style="fill:rgb(182,235,71);"/>
                                        <path d="M1173.43,617.364C1173.43,626.161 1170.38,634.419 1165.53,639.984C1171.99,648.96 1173.43,658.116 1173.43,664.22C1173.43,673.196 1170.02,681.095 1164.45,686.481C1158.17,692.225 1149.55,695.098 1137.7,695.098L1116.88,695.098C1105.03,695.098 1096.41,692.225 1090.13,686.481C1084.38,681.095 1081.15,673.196 1081.15,664.04C1081.15,655.423 1084.03,647.344 1088.87,641.6C1082.41,632.624 1081.15,623.468 1081.15,617.364C1081.15,608.388 1084.38,600.309 1090.13,595.103C1096.41,589.358 1105.03,586.486 1116.88,586.486L1137.7,586.486C1149.55,586.486 1158.17,589.358 1164.45,595.103C1170.02,600.309 1173.43,608.388 1173.43,617.364Z" style="fill:rgb(182,235,71);"/>
                                    </g>
                                </g>
                                <g transform="matrix(1,0,0,0.430464,-72.1543,288.505)">
                                    <path d="M1133.22,616.466C1131.78,615.569 1130.88,615.389 1129.81,615.389C1127.47,615.389 1125.68,617.364 1125.68,619.339C1125.68,621.493 1126.57,622.57 1127.83,623.288L1145.06,633.162C1151.89,637.112 1157.09,641.959 1160.5,647.883C1163.38,652.73 1164.81,658.295 1164.81,664.22C1164.81,670.683 1162.48,676.248 1158.53,680.018C1153.86,684.326 1147.4,686.481 1137.7,686.481L1116.88,686.481C1107.18,686.481 1100.54,684.506 1095.88,680.018C1092.11,676.427 1089.77,670.683 1089.77,664.04C1089.77,657.936 1091.57,652.371 1094.62,648.242C1097.49,650.935 1101.08,653.448 1105.21,655.782L1121.55,664.938C1122.8,665.656 1123.88,666.015 1124.96,666.015C1127.29,666.015 1129.09,664.04 1129.09,662.065C1129.09,659.911 1128.19,658.834 1126.93,658.116L1109.52,648.242C1097.13,641.241 1089.77,631.367 1089.77,617.364C1089.77,610.901 1092.11,605.156 1095.88,601.566C1100.54,597.078 1107.18,595.103 1116.88,595.103L1137.7,595.103C1147.4,595.103 1153.86,597.257 1158.53,601.566C1162.48,605.336 1164.81,610.901 1164.81,617.364C1164.81,623.647 1163.02,629.213 1159.79,633.342C1156.91,630.469 1153.5,627.956 1149.37,625.622L1133.22,616.466Z" style="fill:rgb(30,72,43);"/>
                                </g>
                            </g>
                        </g>
                    </g>
                </g>
            </g>
        </g>
    </g>
</svg>
